<?xml version="1.0" standalone="no"?>
<!DOCTYPE svg PUBLIC "-//W3C//DTD SVG 20010904//EN"
 "http://www.w3.org/TR/2001/REC-SVG-20010904/DTD/svg10.dtd">
<svg version="1.0" xmlns="http://www.w3.org/2000/svg"
 width="598.000000pt" height="598.000000pt" viewBox="0 0 598.000000 598.000000"
 preserveAspectRatio="xMidYMid meet">
<metadata>
Created by potrace 1.11, written by Peter Selinger 2001-2013
</metadata>
<g transform="translate(0.000000,598.000000) scale(0.100000,-0.100000)"
fill="#000000" stroke="none">
<path d="M1456 5111 c-27 -17 -53 -37 -58 -45 -12 -22 9 -206 25 -226 7 -8 18
-27 25 -43 6 -15 28 -35 47 -44 31 -15 36 -21 33 -47 -3 -26 -8 -31 -41 -38
-52 -11 -95 -34 -100 -55 -3 -10 -8 -48 -12 -85 -6 -67 -6 -68 20 -78 14 -5
109 -10 210 -10 101 0 196 5 210 10 26 10 26 11 20 78 -4 37 -9 75 -12 85 -5
21 -75 56 -109 57 -28 0 -47 24 -40 47 4 10 21 27 38 38 18 11 39 34 48 50 8
17 19 33 23 36 25 18 36 188 15 233 -22 49 -53 60 -178 63 -112 3 -116 2 -164
-26z"/>
<path d="M2008 5117 c-58 -30 -90 -88 -93 -172 -1 -35 -5 -68 -9 -74 -4 -6 0
-24 9 -41 13 -25 14 -38 5 -64 -9 -27 -7 -40 10 -77 l20 -44 0 52 c0 28 4 54
9 58 5 3 28 -2 51 -11 35 -14 41 -20 38 -42 -3 -27 -30 -47 -80 -57 -39 -8
-58 -42 -65 -118 -6 -65 -5 -67 21 -77 15 -5 103 -10 196 -10 93 0 181 5 196
10 26 10 27 12 21 77 -7 76 -26 110 -65 118 -82 17 -103 63 -44 98 48 28 62
18 62 -45 l0 -53 20 44 c17 37 19 50 10 77 -9 26 -8 39 5 64 9 17 12 36 8 43
-4 6 -8 39 -9 74 -2 74 -32 134 -83 165 -51 32 -174 34 -233 5z"/>
<path d="M3107 5126 c-20 -7 -44 -20 -53 -27 -51 -42 -81 -180 -65 -303 10
-83 14 -92 46 -98 15 -2 21 3 23 25 4 31 3 31 37 15 44 -20 33 -53 -28 -82
-30 -14 -59 -31 -65 -38 -17 -21 -33 -101 -21 -112 5 -6 9 -18 9 -28 0 -32 35
-38 205 -38 170 0 205 6 205 38 0 10 4 22 9 28 12 11 -4 91 -21 112 -6 7 -35
24 -65 38 -66 32 -72 61 -18 87 20 9 41 29 47 44 7 16 17 35 24 43 7 9 15 63
19 130 6 110 5 116 -18 143 -22 26 -28 27 -127 32 -76 4 -115 1 -143 -9z m223
-61 c0 -8 -4 -15 -10 -15 -5 0 -10 7 -10 15 0 8 5 15 10 15 6 0 10 -7 10 -15z"/>
<path d="M4201 5130 c-54 -13 -143 -63 -154 -87 -12 -28 8 -190 27 -213 7 -8
17 -27 24 -43 6 -15 27 -35 47 -44 52 -25 45 -44 -30 -78 -69 -32 -72 -35 -85
-107 -7 -35 -6 -54 6 -76 14 -30 16 -30 118 -37 58 -4 150 -4 205 0 99 7 101
8 115 37 12 22 13 41 6 76 -13 72 -16 76 -85 106 -76 33 -85 56 -31 81 20 10
41 30 50 50 9 19 20 37 25 40 14 8 24 157 13 185 -16 39 -65 89 -92 94 -14 2
-45 9 -70 15 -25 6 -47 10 -50 10 -3 -1 -20 -5 -39 -9z"/>
<path d="M2455 5104 c-11 -11 -14 -24 -10 -38 10 -31 9 -40 -20 -178 l-28
-128 24 -19 c13 -11 52 -30 87 -41 80 -28 82 -60 3 -60 -54 0 -65 -19 -66
-111 0 -102 -9 -97 200 -97 209 0 200 -5 200 97 -1 94 -12 111 -71 111 -18 0
-40 8 -50 17 -16 17 -15 18 22 29 22 6 64 24 93 38 51 26 53 29 47 59 -4 18
-14 68 -21 112 -8 44 -20 92 -26 107 -8 19 -8 32 1 47 23 44 -16 84 -60 61
-15 -8 -36 -7 -79 1 -47 10 -71 10 -115 0 -39 -9 -61 -9 -75 -2 -27 15 -37 14
-56 -5z"/>
<path d="M3634 5105 c-3 -8 -11 -15 -18 -15 -6 0 -28 -5 -49 -11 -37 -10 -38
-12 -36 -50 3 -32 -2 -44 -23 -64 -26 -24 -27 -26 -12 -62 10 -23 14 -51 10
-75 l-6 -37 74 -35 c83 -40 90 -47 82 -81 -5 -18 -13 -23 -40 -23 -36 0 -94
-26 -101 -45 -3 -7 -9 -41 -14 -77 -14 -100 -14 -100 228 -100 239 0 237 -1
228 91 -3 35 -9 72 -13 82 -9 24 -57 48 -102 51 -34 2 -37 5 -40 34 -3 31 -1
33 77 69 l81 38 0 41 c0 25 6 47 15 54 13 11 12 16 -4 39 -12 16 -21 48 -23
77 -3 49 -3 49 -38 49 -30 0 -35 4 -38 25 -3 24 -5 25 -80 26 -42 0 -94 4
-115 8 -29 5 -39 4 -43 -9z"/>
<path d="M5164 4919 c-19 -5 -55 -34 -88 -71 -129 -142 -206 -218 -219 -218
-17 0 -108 -64 -120 -85 -6 -11 -3 -25 8 -43 22 -34 264 -272 277 -272 6 0 25
-13 44 -29 39 -35 89 -51 159 -51 28 0 57 -4 65 -10 16 -10 15 -11 -23 -28
-15 -6 -37 -28 -48 -47 -35 -58 -99 -43 -99 24 0 39 -41 71 -97 78 -35 4 -53
2 -53 -5 0 -6 -10 -12 -22 -14 -30 -4 -36 -33 -36 -193 0 -155 6 -188 33 -194
11 -2 24 -9 30 -17 8 -10 20 -11 57 -3 52 11 88 46 88 83 0 32 28 66 54 66 16
0 29 -12 45 -40 13 -23 32 -42 46 -46 13 -3 29 -12 35 -19 13 -15 -6 -20 -113
-29 -71 -6 -116 -31 -142 -79 -13 -24 -27 -37 -41 -37 -11 0 -35 -7 -52 -16
-36 -17 -34 -4 -34 -219 0 -213 -1 -204 27 -215 31 -12 32 -26 1 -34 -16 -4
-25 -15 -30 -37 -8 -40 -8 -377 0 -406 6 -21 12 -23 63 -22 96 2 114 9 137 55
25 50 58 94 71 94 5 0 17 -16 26 -35 9 -20 29 -41 44 -48 15 -6 36 -20 46 -30
17 -17 19 -17 53 4 31 19 43 20 123 14 82 -6 91 -5 110 14 19 19 21 32 21 161
0 129 -2 142 -21 161 -19 19 -28 20 -110 14 -80 -6 -92 -5 -123 14 -34 21 -36
21 -53 4 -10 -10 -31 -24 -46 -30 -15 -7 -35 -28 -44 -48 -9 -19 -21 -35 -26
-35 -13 0 -46 44 -71 94 -20 39 -24 41 -78 50 -32 4 -58 12 -58 16 0 5 24 12
54 15 66 9 85 26 101 97 l12 53 12 -42 c14 -51 34 -73 67 -73 13 0 42 -7 64
-16 56 -23 128 -13 210 28 92 47 104 67 104 182 1 117 -10 136 -109 186 -59
30 -80 35 -135 35 -36 0 -78 -6 -95 -13 -16 -6 -42 -14 -57 -17 -21 -4 -31
-16 -47 -58 -18 -46 -20 -48 -20 -22 -1 42 -31 97 -61 112 -14 7 -20 13 -15
13 72 4 267 30 283 39 12 6 28 24 36 40 13 23 24 29 63 35 58 7 117 45 139 89
36 69 24 207 -24 261 -24 26 -91 56 -129 56 -26 0 -36 6 -48 31 -22 41 -61 55
-176 64 -116 8 -126 13 -101 46 11 13 23 35 27 49 10 32 78 103 184 192 87 74
111 111 111 172 0 53 -16 85 -74 143 -68 68 -116 84 -192 62z m-150 -272 c17
-48 -24 -73 -68 -40 l-22 17 29 29 c33 32 48 31 61 -6z m170 -147 c11 -11 -21
-63 -34 -55 -6 4 -10 -1 -10 -9 0 -22 -8 -20 -31 7 -23 28 -23 36 -2 59 17 19
56 18 77 -2z"/>
<path d="M845 4910 c-4 -6 -3 -14 0 -20 9 -15 35 -12 35 4 0 17 -27 29 -35 16z"/>
<path d="M715 4888 c-28 -16 -89 -78 -103 -105 -23 -42 -14 -107 22 -176 62
-120 222 -317 258 -317 10 0 31 -14 45 -30 53 -64 50 -65 203 86 93 91 140
145 140 159 0 11 -16 36 -35 55 -19 19 -35 42 -35 51 0 20 -93 106 -202 185
-77 57 -91 62 -113 42 -38 -34 -47 -39 -61 -34 -7 3 -14 12 -14 20 0 8 -13 19
-30 25 -20 7 -30 17 -30 30 0 23 -15 26 -45 9z"/>
<path d="M614 4213 c-11 -10 -31 -25 -46 -32 -16 -8 -28 -17 -28 -20 0 -3 -14
-22 -30 -41 -27 -32 -35 -50 -31 -73 1 -4 -5 -18 -14 -30 -18 -26 -20 -96 -2
-122 7 -11 14 -31 15 -44 0 -13 15 -42 33 -65 18 -23 36 -46 41 -53 6 -8 -4
-17 -35 -31 -61 -27 -75 -63 -52 -132 14 -41 15 -57 6 -76 -16 -36 -14 -173 4
-207 12 -24 12 -33 -1 -68 -20 -60 -18 -75 20 -116 l33 -37 -33 -33 c-34 -33
-34 -34 -34 -126 1 -122 12 -173 44 -206 24 -24 34 -26 106 -27 44 0 83 -3 86
-7 12 -12 52 -8 61 6 4 7 20 18 35 24 15 7 39 31 54 53 22 32 33 40 52 38 21
-2 28 -12 39 -53 8 -27 22 -58 32 -68 19 -19 132 -42 141 -28 3 5 14 10 25 12
19 4 20 13 23 218 2 221 -1 241 -38 241 -10 0 -20 5 -22 11 -5 16 -129 -15
-145 -36 -6 -10 -17 -42 -23 -71 -11 -50 -13 -54 -40 -54 -23 0 -32 7 -46 35
-9 20 -31 43 -48 52 -17 8 -39 22 -49 31 -26 23 -5 32 81 32 39 0 72 4 72 9 0
17 -52 71 -82 87 l-29 15 29 27 c16 15 32 37 36 49 8 25 42 36 68 22 18 -10
19 -13 22 -62 1 -15 8 -34 16 -41 18 -18 149 -37 172 -25 24 13 31 91 23 251
-9 174 -12 179 -105 166 -81 -11 -110 -29 -110 -69 0 -46 -16 -69 -49 -69 -22
0 -34 9 -54 39 -15 23 -36 41 -49 43 -21 3 -19 6 18 30 41 26 84 72 84 89 0 5
-30 9 -67 10 -38 0 -63 3 -56 5 6 3 29 26 50 52 29 35 39 58 44 97 5 47 6 49
16 24 6 -15 18 -29 27 -32 8 -3 24 -24 35 -46 20 -38 24 -40 78 -46 32 -4 65
-9 74 -11 8 -2 24 2 35 10 17 13 19 29 22 178 2 90 -1 183 -5 208 l-9 45 -64
-1 c-93 -1 -115 -9 -130 -45 -7 -17 -24 -37 -37 -46 -12 -8 -23 -24 -23 -34 0
-11 -4 -19 -10 -19 -5 0 -10 22 -10 48 0 41 -6 56 -36 95 -41 53 -41 53 -126
62 -56 6 -68 4 -84 -12z m71 -1133 c-3 -5 -16 -10 -28 -9 -21 0 -21 1 -2 9 28
12 37 12 30 0z"/>
<path d="M3067 4213 c-3 -5 -8 -29 -12 -55 -8 -55 9 -71 48 -45 21 14 24 13
35 -4 7 -10 21 -19 33 -19 17 0 20 -6 18 -47 -3 -57 -31 -103 -63 -103 -32 0
-47 18 -34 40 16 25 -25 106 -57 114 -14 4 -25 13 -25 22 0 9 -13 29 -29 45
-25 24 -37 29 -81 29 -39 0 -52 -4 -58 -17 -5 -12 -18 -18 -42 -18 -38 0 -38
0 -26 -71 l7 -41 -88 -7 c-48 -3 -123 -4 -166 -2 l-78 5 -39 -37 c-21 -20 -44
-49 -49 -64 -6 -16 -16 -28 -23 -28 -34 0 -87 -22 -90 -38 -3 -9 2 -39 10 -65
7 -27 11 -51 8 -54 -3 -3 -27 3 -54 12 -90 33 -138 -4 -113 -86 14 -47 11 -53
-27 -54 -20 0 -31 -8 -43 -33 -9 -18 -29 -42 -44 -53 -36 -29 -45 -57 -56
-167 -8 -82 -6 -97 10 -128 16 -29 17 -41 8 -77 -5 -23 -16 -49 -23 -58 -15
-17 -18 -76 -6 -96 5 -7 4 -39 -2 -72 -8 -50 -7 -63 7 -85 16 -24 16 -27 -3
-46 -26 -26 -25 -40 1 -47 17 -5 20 -13 20 -62 -2 -143 10 -194 49 -206 18 -6
20 -12 14 -54 -6 -49 10 -79 38 -68 10 3 12 -9 10 -49 -3 -47 1 -60 33 -112
29 -48 40 -58 58 -55 17 3 26 -4 37 -28 24 -51 41 -57 84 -24 34 26 36 26 36
7 0 -12 13 -36 28 -54 16 -18 38 -47 50 -65 27 -39 75 -52 101 -29 21 19 29
12 51 -41 7 -18 16 -34 21 -34 13 -2 22 -5 41 -13 10 -5 28 -1 46 9 28 17 30
16 88 -16 67 -37 104 -67 104 -85 0 -19 29 -25 74 -14 72 19 90 30 124 78 67
96 61 91 62 51 0 -19 6 -43 13 -52 10 -13 123 -47 157 -47 18 0 40 33 40 60 0
38 18 48 29 17 5 -13 15 -26 23 -29 7 -2 102 -2 211 0 l198 4 10 27 c13 33 2
126 -17 146 -8 8 -34 19 -57 25 -87 22 -98 47 -37 85 22 14 46 38 53 53 6 15
17 33 24 40 22 23 44 166 29 191 -4 6 -2 27 4 47 8 22 9 57 5 90 -8 64 -27 82
-102 92 -42 6 -48 10 -51 32 -2 20 5 29 35 45 54 29 92 109 100 212 7 99 0
107 -122 146 -85 27 -87 27 -143 11 -100 -29 -162 -70 -162 -107 0 -16 -6 -14
-39 16 -66 59 -152 62 -216 6 -53 -47 -66 -103 -72 -313 -5 -166 -4 -180 13
-193 13 -9 56 -13 154 -13 156 0 178 -7 165 -56 -4 -16 -7 -40 -7 -54 -1 -39
22 -139 35 -152 7 -7 18 -25 24 -40 7 -15 25 -35 40 -44 65 -40 62 -77 -7 -89
-52 -9 -90 -39 -91 -73 0 -15 -5 -36 -10 -47 -5 -12 -6 21 -1 90 10 158 9 195
-8 206 -17 11 -145 2 -172 -12 -10 -5 -21 -24 -26 -42 l-8 -32 -28 60 c-29 63
-71 115 -92 115 -6 0 -25 7 -40 15 -40 21 -47 19 -72 -15 -14 -19 -37 -33 -65
-40 -23 -7 -66 -25 -96 -42 l-54 -30 8 29 c4 15 9 56 12 90 4 59 3 63 -20 72
-13 5 -36 30 -51 55 -35 60 -65 80 -108 71 -33 -7 -33 -7 -10 10 12 9 22 24
22 34 0 24 -25 45 -41 35 -9 -5 -10 -2 -4 12 14 33 17 71 7 78 -6 4 -8 22 -5
41 4 26 1 41 -12 55 -18 19 -17 20 6 20 14 0 30 5 37 12 13 13 16 95 6 123
-10 26 -62 48 -100 40 l-34 -6 6 55 c7 55 -6 93 -27 80 -5 -3 -9 16 -9 41 0
25 -7 60 -16 76 l-15 30 30 -15 c46 -24 57 -20 80 35 24 54 22 76 -9 104 -31
28 -24 36 17 19 53 -23 105 -6 141 46 20 28 34 39 53 40 15 0 32 7 39 15 7 8
18 15 25 15 6 0 25 17 42 38 36 44 192 152 220 152 30 0 103 57 103 80 0 12 6
23 14 26 16 6 57 -12 54 -24 -5 -18 17 -59 46 -86 30 -28 35 -29 128 -30 93
-1 98 -2 98 -22 0 -14 17 -33 53 -58 28 -20 67 -48 86 -62 43 -31 71 -38 115
-30 72 14 116 93 93 164 -13 41 -93 107 -140 118 -23 5 -28 10 -23 27 6 24
-26 82 -50 91 -9 3 -30 -5 -49 -19 l-33 -26 -4 36 c-3 24 0 35 9 35 7 0 18 11
24 24 6 13 21 27 32 30 23 6 40 -4 20 -11 -7 -3 -13 -11 -13 -18 0 -17 61 -65
82 -65 9 0 19 -7 22 -16 5 -13 15 -15 51 -11 41 6 45 5 45 -14 0 -34 29 -85
55 -97 22 -10 29 -7 66 28 33 31 39 43 34 62 -11 37 -52 68 -91 68 -34 0 -35
1 -29 33 8 41 -13 62 -50 53 -18 -5 -27 -2 -31 8 -5 13 -66 56 -80 56 -2 0 -4
-7 -4 -15 0 -25 -17 -17 -24 11 -6 23 -11 26 -36 20 -17 -3 -30 -1 -30 4 0 38
-104 55 -148 24 -21 -14 -22 -14 -22 8 0 39 -27 68 -64 68 -18 0 -47 5 -65 11
-23 8 -35 8 -45 0 -10 -8 -17 -6 -31 9 -18 20 -40 26 -48 13z m246 -204 c4
-16 3 -18 -9 -8 -7 6 -11 15 -8 20 8 13 11 11 17 -12z m-1113 -411 l0 -32 -21
21 c-22 22 -19 43 7 43 9 0 14 -11 14 -32z m19 -71 c7 -13 27 -32 44 -43 l32
-19 -45 -3 c-29 -2 -53 -11 -67 -24 -13 -12 -23 -17 -23 -12 0 5 -4 25 -9 45
-7 30 -6 36 8 35 9 0 20 9 26 22 12 28 19 28 34 -1z m-8 -225 c-16 -5 -41 5
-41 17 0 7 10 6 26 -1 15 -7 21 -14 15 -16z m1089 -382 c0 -5 -4 -10 -10 -10
-5 0 -10 5 -10 10 0 6 5 10 10 10 6 0 10 -4 10 -10z m-977 -39 c-3 -13 2 -23
16 -31 27 -14 16 -34 -13 -25 -11 3 -34 8 -50 10 -45 7 -54 23 -20 35 16 6 38
14 49 19 11 6 21 10 22 10 0 1 -1 -8 -4 -18z m-258 -20 c7 -13 -26 -30 -53
-28 -20 1 -20 2 -5 19 17 19 48 24 58 9z m1320 -81 c9 -17 34 -42 56 -56 57
-35 51 -63 -16 -80 -27 -7 -52 -11 -54 -9 -6 7 -14 175 -8 175 4 0 13 -14 22
-30z m-1279 -171 c3 -6 2 -15 -4 -21 -6 -6 -11 -2 -15 11 -5 22 7 29 19 10z
m225 -10 c14 -14 29 -19 45 -16 24 4 33 -7 13 -18 -5 -4 -9 -21 -7 -37 2 -18
-2 -33 -9 -35 -7 -3 -13 0 -13 6 0 6 -13 32 -30 58 -41 64 -40 83 1 42z m-41
-40 c0 -5 -4 -9 -10 -9 -5 0 -10 7 -10 16 0 8 5 12 10 9 6 -3 10 -10 10 -16z
m-121 -62 c22 -48 35 -87 27 -87 -17 0 -34 14 -30 25 9 22 -15 56 -46 67 -27
9 -31 24 -21 66 1 1 12 -5 26 -14 13 -8 33 -34 44 -57z m41 17 c0 -8 -4 -12
-10 -9 -5 3 -10 10 -10 16 0 5 5 9 10 9 6 0 10 -7 10 -16z m120 -92 c-17 -28
-32 -60 -33 -72 -2 -27 -7 -26 -52 15 l-38 36 74 38 c41 21 75 37 77 36 2 -2
-11 -26 -28 -53z m-1 -141 l21 -29 -29 11 c-20 7 -27 15 -23 29 6 24 7 23 31
-11z m237 -167 c4 -17 2 -29 -7 -35 -10 -6 -15 -3 -17 11 -2 10 -12 22 -23 25
-25 8 -15 25 16 25 18 0 26 -7 31 -26z m-76 -28 c0 -2 -9 -6 -20 -9 -11 -3
-18 -1 -14 4 5 9 34 13 34 5z m-73 -68 c-3 -8 -6 -5 -6 6 -1 11 2 17 5 13 3
-3 4 -12 1 -19z"/>
<path d="M1041 2549 c-28 -9 -59 -23 -69 -32 -9 -9 -38 -21 -63 -28 -43 -12
-49 -11 -95 15 -41 23 -62 28 -129 29 -67 1 -87 -2 -120 -21 -68 -39 -85 -74
-85 -176 0 -100 12 -131 67 -173 33 -25 46 -28 128 -31 68 -3 95 0 106 10 8 7
33 22 55 32 49 21 88 16 149 -20 56 -33 114 -40 153 -20 l32 17 0 188 0 189
-39 19 c-37 18 -41 19 -90 2z"/>
<path d="M5313 2555 c-29 -8 -74 -26 -101 -40 -53 -27 -67 -26 -117 10 -44 32
-91 38 -137 18 l-38 -17 0 -188 0 -188 25 -6 c29 -7 34 -24 7 -24 -39 0 -42
-17 -42 -235 0 -166 3 -215 14 -231 13 -17 5 -29 -119 -155 -73 -74 -138 -146
-144 -158 -11 -20 -9 -26 29 -61 58 -54 91 -66 140 -51 22 6 46 18 54 26 19
20 29 19 50 -4 23 -25 12 -69 -19 -77 -22 -5 -45 -41 -45 -69 0 -15 59 -66
138 -118 194 -127 411 51 304 249 -43 82 -115 174 -135 174 -27 0 -77 -29 -77
-44 0 -31 -64 -35 -80 -5 -9 16 -8 23 3 32 21 17 40 83 33 112 -4 14 -26 49
-50 79 l-45 54 57 7 c31 3 64 8 74 11 18 5 48 72 48 107 0 58 78 66 86 10 9
-59 179 -117 268 -92 85 24 116 83 116 224 0 86 -13 119 -62 160 -32 27 -35
28 -122 21 -58 -4 -95 -11 -106 -21 -9 -8 -23 -15 -32 -15 -16 0 -49 -33 -67
-68 -10 -18 -19 -22 -44 -20 -29 3 -32 7 -39 48 -9 55 -37 94 -69 98 -33 5
-49 22 -21 22 28 0 72 42 72 69 0 73 62 97 99 38 22 -36 103 -93 152 -107 98
-29 211 59 234 182 18 93 -61 222 -150 247 -51 14 -77 13 -142 -4z m-135 -132
c5 -18 -23 -16 -39 3 -11 14 -10 15 11 12 13 -1 25 -9 28 -15z"/>
<path d="M970 2078 c-53 -19 -148 -39 -278 -59 -155 -23 -224 -91 -225 -219 0
-80 27 -139 81 -175 40 -26 61 -31 267 -65 66 -11 143 -25 170 -31 82 -18 87
-17 100 21 9 26 17 35 35 35 39 0 50 36 49 165 0 63 -4 148 -8 188 -7 76 -19
94 -55 89 -14 -1 -22 8 -31 33 -14 42 -30 45 -105 18z"/>
<path d="M2102 1565 c-24 -7 -51 -20 -60 -28 -9 -8 -25 -17 -34 -20 -9 -3 -24
-17 -33 -30 -14 -22 -14 -35 -3 -113 14 -101 45 -158 103 -193 21 -12 35 -28
35 -39 0 -22 -25 -46 -38 -38 -5 3 -30 -1 -56 -10 -39 -14 -47 -21 -56 -52 -5
-21 -10 -62 -10 -93 0 -55 1 -57 31 -63 41 -8 377 -8 408 1 23 6 24 8 18 82
-3 43 -9 84 -12 93 -7 18 -92 51 -107 42 -13 -8 -38 16 -38 37 0 11 17 29 40
44 23 14 46 38 53 53 6 15 16 30 20 33 14 10 30 181 23 232 -12 76 -21 82
-107 68 -51 -8 -75 -9 -77 -1 -5 14 -47 12 -100 -5z"/>
<path d="M2615 1561 c-44 -20 -100 -78 -116 -120 -12 -30 6 -136 27 -161 7 -8
17 -27 23 -42 6 -16 27 -36 51 -48 22 -11 40 -27 40 -34 0 -30 -13 -46 -39
-46 -38 -1 -108 -35 -115 -57 -9 -30 -12 -151 -3 -160 11 -11 443 -11 454 0 8
9 6 129 -3 160 -7 22 -54 46 -107 55 -38 7 -42 11 -45 38 -3 26 2 33 34 49 20
11 45 35 54 52 10 18 22 38 28 45 19 24 34 121 24 149 -15 37 -69 97 -105 116
-47 24 -154 26 -202 4z"/>
<path d="M3178 1566 c-76 -27 -124 -76 -148 -150 -16 -49 -9 -200 11 -242 13
-26 21 -30 77 -38 34 -5 62 -13 62 -17 0 -12 -35 -29 -59 -29 -11 0 -32 -10
-47 -23 -24 -21 -27 -32 -32 -99 l-4 -75 32 -7 c42 -8 328 -8 370 0 l32 7 -4
75 c-5 67 -8 78 -32 99 -15 13 -36 23 -47 23 -24 0 -59 17 -59 29 0 5 27 12
61 16 58 7 62 9 76 43 8 20 18 72 21 114 l5 78 58 0 c61 0 76 -13 44 -40 -17
-14 -20 -46 -5 -55 6 -4 17 -22 25 -41 9 -22 27 -40 49 -51 28 -13 36 -23 36
-44 0 -23 -5 -27 -37 -33 -21 -3 -52 -14 -69 -25 -28 -17 -33 -26 -39 -79 -5
-46 -3 -67 9 -91 l17 -31 198 0 199 0 20 33 c17 30 18 39 8 90 -14 70 -27 84
-94 99 -46 11 -52 16 -52 39 0 19 8 29 36 42 22 11 40 29 49 51 8 19 19 37 25
41 15 9 12 41 -6 56 -14 11 -15 26 -10 82 6 62 4 70 -16 90 -13 13 -53 36 -90
51 l-68 29 -66 -28 c-88 -38 -104 -52 -111 -103 -5 -39 -8 -42 -37 -42 -17 0
-41 -3 -53 -6 -19 -5 -26 0 -42 38 -24 57 -78 103 -143 123 -62 18 -101 18
-150 1z"/>
<path d="M4240 1564 c0 -8 -15 -29 -34 -47 -19 -18 -37 -41 -40 -52 -7 -24 18
-185 30 -194 5 -3 16 -19 24 -36 9 -16 32 -39 53 -50 55 -30 48 -80 -11 -83
-13 0 -39 -6 -57 -12 -28 -9 -36 -19 -44 -48 -20 -79 -21 -103 -7 -108 8 -3
16 -13 19 -23 3 -14 19 -19 67 -24 150 -16 338 -4 348 22 3 9 11 20 18 24 14
8 12 32 -7 109 -8 29 -16 39 -44 48 -18 6 -44 12 -57 12 -59 3 -66 53 -11 83
89 49 138 245 87 347 -13 24 -19 27 -96 32 -228 15 -238 15 -238 0z"/>
<path d="M1775 1560 c-16 -4 -57 -8 -90 -9 -35 -1 -74 -8 -94 -19 -43 -22 -91
-108 -91 -163 0 -22 -4 -39 -9 -39 -18 0 -20 -32 -3 -58 10 -15 22 -36 28 -47
6 -11 27 -29 47 -40 29 -16 37 -26 37 -47 0 -28 -6 -32 -46 -29 -13 1 -38 -14
-61 -36 -35 -33 -41 -46 -47 -97 -10 -92 -13 -91 224 -91 237 0 234 -1 224 91
-6 51 -12 64 -47 97 -23 22 -48 37 -61 36 -40 -3 -46 1 -46 29 0 22 10 35 45
60 25 17 45 38 45 45 0 7 9 23 20 35 17 18 18 23 5 36 -16 16 -22 130 -10 179
4 15 4 38 1 52 -7 26 -18 29 -71 15z"/>
<path d="M1066 1460 c-63 -66 -65 -75 -20 -141 28 -41 29 -52 9 -69 -12 -10
-24 -10 -54 -1 -31 9 -50 8 -92 -2 -46 -12 -55 -19 -64 -45 -10 -30 -21 -43
-119 -139 -43 -42 -47 -48 -31 -58 10 -5 57 -41 104 -79 l86 -68 58 6 c60 6
88 17 120 45 10 8 33 20 50 26 27 8 33 17 41 55 8 43 9 57 3 124 -3 46 23 55
70 24 69 -47 76 -46 143 18 33 31 60 64 60 73 0 21 -270 291 -291 291 -9 0
-42 -27 -73 -60z"/>
</g>
</svg>
